<?xml version="1.0" encoding="UTF-8"?>
<svg id="Layer_2" data-name="Layer 2" xmlns="http://www.w3.org/2000/svg" viewBox="0 0 1943.49 1294.71">
  <defs>
    <style>
      .cls-1 {
        fill: #fff;
        stroke-width: 0px;
      }
    </style>
  </defs>
  <g id="Layer_1-2" data-name="Layer 1">
    <path class="cls-1" d="m.48,107.7v747.75l290.03,182.61h0v-458.09l214.5,134.75,214.5-134.75v458.09h.25l289.77-182.46V107.7l-.91.63-503.62,316.37L.48,107.7Z"/>
    <path class="cls-1" d="m893.19,56.97c-129.39,114.88-258.79,229.75-388.18,344.63C634.41,267.73,763.81,133.86,893.21,0c0,18.99-.02,37.98-.03,56.97Z"/>
    <path class="cls-1" d="m935.6,86.93l-430.59,323.33c143.57-127,287.15-253.99,430.72-380.99-.04,19.22-.08,38.44-.13,57.66Z"/>
    <path class="cls-1" d="m116.83,56.97c129.39,114.88,258.79,229.75,388.18,344.63C375.61,267.73,246.2,133.86,116.8,0c0,18.99.02,37.98.03,56.97Z"/>
    <path class="cls-1" d="m74.42,86.93l430.59,323.33C361.44,283.27,217.86,156.27,74.29,29.27c.04,19.22.08,38.44.13,57.66Z"/>
    <path class="cls-1" d="m505.01,417.05L979.39,119v-56.83l-474.39,354.88Z"/>
    <path class="cls-1" d="m505.01,417.05L30.62,119v-56.83l474.39,354.88Z"/>
    <path class="cls-1" d="m1373.25,504.27h-289.88c10.18,21.49,37.03,84.19,35.87,172.68-1.07,81.8-25.47,139.56-35.87,161.49h0s144.94,199.64,144.94,199.64c-2.99-98.09-5.98-196.17-8.98-294.26-6.58-3.29-11.09-10.09-11.09-17.95,0-11.08,8.98-20.06,20.06-20.06s20.06,8.98,20.06,20.06c0,7.78-4.42,14.51-10.89,17.85-3.06,98.12-6.11,196.24-9.17,294.36l144.94-199.64h0c-10.4-21.93-34.8-79.69-35.87-161.49-1.16-88.49,25.69-151.18,35.87-172.67Zm522.44,121.55c-31.54-39.13-80.72-66.75-147.57-82.83,44.01-15.24,77.45-35.98,100.3-62.25,34.28-39.37,51.42-86.59,51.42-141.65,0-65.64-24.01-120.68-72.02-165.14-48-44.46-116.84-66.7-206.48-66.7h-537.98v365.11h289.88v-176.53h126.81c43.54,0,74.07,7.63,91.62,22.87,17.54,15.24,26.32,36.41,26.32,63.49,0,29.21-8.78,51.55-26.32,67-17.55,15.46-48.73,23.18-93.51,23.18h-71.72v177.54h92.81c50.36,0,85.59,8.37,105.7,25.08,20.09,16.72,30.16,38.84,30.16,66.36,0,29.64-10.16,53.24-30.47,70.79-20.31,17.57-55.23,26.35-104.74,26.35h-93.46v199.61h153.03c21.14,0,64.07-4.23,128.78-12.7,48.63-6.33,85.01-16.49,109.11-30.47,38.9-22.41,69.57-52.88,91.98-91.39,22.41-38.51,33.63-81.89,33.63-130.13,0-59.24-15.76-108.42-47.28-147.57Z"/>
  </g>
  <g id="English">
    <g>
      <path class="cls-1" d="m119.48,1184.03v109.59h-21.98v-71.28l-29.36,71.28h-16.64l-29.52-71.28v71.28H0v-109.59h24.96l34.85,81.48,34.85-81.48h24.81Z"/>
      <path class="cls-1" d="m195.15,1287.49c-8.58-4.81-15.39-11.49-20.41-20.02-5.02-8.53-7.54-18.18-7.54-28.97s2.51-20.28,7.54-28.81c5.02-8.53,11.83-15.2,20.41-20.02,8.58-4.81,18-7.22,28.26-7.22s19.81,2.41,28.34,7.22c8.53,4.82,15.28,11.49,20.25,20.02,4.97,8.53,7.46,18.13,7.46,28.81s-2.49,20.44-7.46,28.97c-4.97,8.53-11.75,15.21-20.33,20.02-8.58,4.82-18,7.22-28.26,7.22s-19.68-2.41-28.26-7.22Zm45.69-16.88c5.02-2.98,8.95-7.25,11.77-12.79,2.83-5.55,4.24-11.98,4.24-19.31s-1.41-13.74-4.24-19.23c-2.83-5.5-6.75-9.71-11.77-12.64-5.02-2.93-10.83-4.4-17.43-4.4s-12.43,1.47-17.51,4.4c-5.08,2.93-9.03,7.14-11.85,12.64-2.83,5.5-4.24,11.91-4.24,19.23s1.41,13.76,4.24,19.31c2.83,5.55,6.78,9.81,11.85,12.79,5.08,2.98,10.91,4.47,17.51,4.47s12.4-1.49,17.43-4.47Z"/>
      <path class="cls-1" d="m348.85,1184.03v67.82c0,7.43,1.94,13.11,5.81,17.03,3.87,3.92,9.31,5.89,16.33,5.89s12.61-1.96,16.48-5.89c3.87-3.92,5.81-9.6,5.81-17.03v-67.82h22.14v67.67c0,9.32-2.02,17.19-6.04,23.63-4.03,6.44-9.42,11.28-16.17,14.52-6.75,3.25-14.26,4.87-22.53,4.87s-15.57-1.62-22.22-4.87c-6.65-3.24-11.91-8.09-15.78-14.52-3.87-6.44-5.81-14.31-5.81-23.63v-67.67h21.98Z"/>
      <path class="cls-1" d="m489.99,1276.19h36.11v17.43h-58.09v-109.59h21.98v92.16Z"/>
      <path class="cls-1" d="m593.45,1184.03v109.59h-21.98v-109.59h21.98Z"/>
      <path class="cls-1" d="m792.69,1246.67c3.98,5.02,5.97,10.78,5.97,17.27,0,5.86-1.44,11.02-4.32,15.46-2.88,4.45-7.04,7.93-12.48,10.44-5.44,2.51-11.88,3.77-19.31,3.77h-47.26v-109.59h45.22c7.43,0,13.84,1.2,19.23,3.61,5.39,2.41,9.47,5.76,12.25,10.05,2.77,4.29,4.16,9.16,4.16,14.6,0,6.39-1.7,11.72-5.1,16.01-3.4,4.29-7.93,7.33-13.58,9.11,6.17,1.15,11.25,4.24,15.23,9.26Zm-55.42-17.43h20.1c5.23,0,9.26-1.18,12.09-3.53,2.83-2.36,4.24-5.73,4.24-10.13s-1.41-7.8-4.24-10.21c-2.83-2.41-6.86-3.61-12.09-3.61h-20.1v27.47Zm34.62,42.7c2.98-2.51,4.47-6.07,4.47-10.68s-1.57-8.4-4.71-11.07c-3.14-2.67-7.38-4-12.72-4h-21.67v29.52h22.14c5.34,0,9.5-1.26,12.48-3.77Z"/>
      <path class="cls-1" d="m938.54,1184.03v109.59h-21.98v-46.63h-46.94v46.63h-21.98v-109.59h21.98v45.06h46.94v-45.06h21.98Z"/>
      <path class="cls-1" d="m1013.58,1201.77v27.47h36.89v17.43h-36.89v29.04h41.6v17.9h-63.58v-109.74h63.58v17.9h-41.6Z"/>
      <path class="cls-1" d="m1128.51,1201.77v27.47h36.89v17.43h-36.89v29.04h41.6v17.9h-63.58v-109.74h63.58v17.9h-41.6Z"/>
      <path class="cls-1" d="m1340.93,1184.03v109.59h-21.98v-71.28l-29.36,71.28h-16.64l-29.52-71.28v71.28h-21.98v-109.59h24.96l34.85,81.48,34.85-81.48h24.81Z"/>
      <path class="cls-1" d="m1461.19,1272.73h-43.65l-7.22,20.88h-23.08l39.41-109.74h25.59l39.41,109.74h-23.24l-7.22-20.88Zm-5.97-17.58l-15.86-45.84-15.86,45.84h31.71Z"/>
      <path class="cls-1" d="m1631.53,1293.61h-21.98l-49.77-75.2v75.2h-21.98v-109.74h21.98l49.77,75.36v-75.36h21.98v109.74Z"/>
      <path class="cls-1" d="m1706.57,1201.77v27.47h36.89v17.43h-36.89v29.04h41.6v17.9h-63.58v-109.74h63.58v17.9h-41.6Z"/>
      <path class="cls-1" d="m1874.09,1184.03v17.74h-29.2v91.84h-21.98v-91.84h-29.2v-17.74h80.38Z"/>
      <path class="cls-1" d="m1943.49,1184.03v109.59h-21.98v-109.59h21.98Z"/>
    </g>
  </g>
</svg>