<?xml version="1.0" encoding="UTF-8"?>
<svg id="Layer_2" data-name="Layer 2" xmlns="http://www.w3.org/2000/svg" viewBox="0 0 2820.21 1527.31">
  <defs>
    <style>
      .cls-1 {
        fill: #fff;
        stroke-width: 0px;
      }
    </style>
  </defs>
  <g id="Layer_1-2" data-name="Layer 1">
    <path class="cls-1" d="m0,158.34v1099.32l426.39,268.47h0v-673.47l315.36,198.1,315.36-198.11v673.48h.37l426.02-268.24V158.34l-1.34.93-740.41,465.11L0,158.34Z"/>
    <path class="cls-1" d="m1312.44,83.75c-190.23,168.89-380.46,337.77-570.69,506.66C931.99,393.61,1122.23,196.8,1312.48,0c-.01,27.92-.03,55.83-.04,83.75Z"/>
    <path class="cls-1" d="m1374.79,127.81l-633.05,475.35c211.08-186.71,422.15-373.41,633.23-560.12-.06,28.26-.12,56.51-.19,84.77Z"/>
    <path class="cls-1" d="m171.06,83.75c190.23,168.89,380.46,337.77,570.69,506.66C551.51,393.61,361.26,196.8,171.02,0c.01,27.92.03,55.83.04,83.75Z"/>
    <path class="cls-1" d="m108.71,127.81l633.05,475.35C530.67,416.45,319.6,229.74,108.52,43.04c.06,28.26.12,56.51.19,84.77Z"/>
    <path class="cls-1" d="m741.75,613.13l697.43-438.18v-83.56l-697.43,521.74Z"/>
    <path class="cls-1" d="m741.75,613.13L44.32,174.95v-83.56l697.43,521.74Z"/>
    <path class="cls-1" d="m1982.31,742.24h-426.33c14.97,31.6,54.46,123.81,52.75,253.95-1.57,120.31-37.46,205.25-52.75,237.5h0s213.16,293.61,213.16,293.61c-4.4-144.26-8.8-288.51-13.2-432.77-9.68-4.84-16.32-14.84-16.32-26.39,0-16.3,13.21-29.51,29.51-29.51s29.5,13.21,29.5,29.51c0,11.44-6.5,21.35-16.01,26.25-4.49,144.3-8.99,288.61-13.48,432.91l213.17-293.61h0c-15.29-32.26-51.18-117.2-52.75-237.5-1.71-130.14,37.78-222.35,52.75-253.95Zm768.36,178.77c-46.38-57.56-118.71-98.17-217.04-121.82,64.72-22.41,113.91-52.92,147.52-91.55,50.41-57.9,75.63-127.35,75.63-208.32,0-96.53-35.31-177.48-105.91-242.87-70.6-65.39-171.84-98.1-303.68-98.1h-791.2v536.96h426.33v-259.63h186.49c64.03,0,108.93,11.23,134.75,33.63,25.8,22.41,38.7,53.55,38.7,93.37,0,42.97-12.91,75.81-38.7,98.54-25.81,22.73-71.66,34.09-137.53,34.09h-105.48v261.11h136.5c74.06,0,125.88,12.31,155.45,36.88,29.55,24.59,44.35,57.12,44.35,97.59,0,43.59-14.94,78.3-44.81,104.12-29.87,25.84-81.23,38.75-154.04,38.75h-137.44v293.56h225.06c31.1,0,94.22-6.22,189.4-18.67,71.52-9.31,125.02-24.25,160.47-44.81,57.21-32.96,102.32-77.77,135.28-134.4,32.96-56.63,49.46-120.44,49.46-191.38,0-87.13-23.18-159.46-69.54-217.03Z"/>
  </g>
</svg>